<svg xmlns="http://www.w3.org/2000/svg"
     width="0.666667in" height="0.666667in"
     viewBox="0 0 200 200">
  <path d="M 137.00,103.00
           C 136.69,115.22 128.37,121.11 119.00,127.42
             115.06,130.08 108.37,135.23 110.61,140.85
             113.71,148.63 129.59,140.19 134.00,137.66
             139.79,134.35 143.70,130.86 148.16,125.99
             158.31,114.89 161.38,106.04 161.96,91.00
             162.42,79.04 157.20,63.56 146.00,57.83
             131.11,50.22 103.41,57.21 104.01,82.00
             104.42,98.67 121.68,110.10 137.00,103.00 Z
           M 75.00,103.00
           C 74.69,115.22 66.37,121.11 57.00,127.42
             53.06,130.08 46.37,135.23 48.61,140.85
             51.71,148.63 67.59,140.19 72.00,137.66
             77.79,134.35 81.70,130.86 86.16,125.99
             96.31,114.89 99.38,106.04 99.96,91.00
             100.42,79.04 95.20,63.56 84.00,57.83
             69.11,50.22 41.41,57.21 42.01,82.00
             42.42,98.67 59.68,110.10 75.00,103.00 Z" />
</svg>
