<svg xmlns="http://www.w3.org/2000/svg"
     viewBox="0 0 48 48">
  <path id="Zaznaczenie"
        d="M 11.31,0.56
           C 21.88,0.13 22.94,11.55 25.81,7.56
             28.88,4.55 36.79,-3.81 44.69,4.25
             47.48,7.10 47.84,12.55 47.94,16.38
             48.18,26.07 45.12,28.38 37.31,36.50
             33.94,39.44 28.69,46.25 27.44,46.75
             19.56,53.25 -15.68,6.06 11.31,0.56 Z
           M 13.12,7.88
           C 9.53,8.51 7.45,8.65 6.00,12.31
             5.19,17.88 7.88,23.56 13.94,32.19
             16.21,34.39 21.80,41.31 25.19,41.31
             28.77,41.31 28.69,38.19 35.31,31.12
             40.76,25.71 48.40,17.77 39.77,10.51
             35.65,7.05 30.76,8.76 28.13,13.05
             27.05,14.82 27.97,19.19 25.75,19.19
             23.53,19.19 20.95,14.82 19.87,13.05
             17.92,9.87 16.59,8.48 13.12,7.88 Z" />
</svg>
