<svg xmlns="http://www.w3.org/2000/svg"
     viewBox="0 0 48 48">
  <path id="Zaznaczenie"
        d="M 16.00,38.00
           C 11.75,37.38 13.69,34.25 10.19,32.00
             4.67,24.12 2.09,14.43 8.79,6.18
             13.72,0.11 22.41,-0.52 29.75,1.12
             38.88,3.18 43.20,10.25 42.98,19.00
             42.85,24.61 40.82,31.88 34.00,31.00
             33.44,29.44 38.98,23.54 39.36,19.00
             39.67,15.30 38.25,11.82 35.78,9.10
             23.67,-4.14 5.86,8.75 8.98,21.00
             9.73,23.95 11.11,25.71 13.02,28.00
             19.62,37.88 16.64,32.27 20.00,34.00
             20.00,34.00 16.00,22.00 16.00,22.00
             16.00,22.00 24.06,25.31 24.06,25.31
             24.06,25.31 32.00,22.00 32.00,22.00
             32.00,22.00 28.00,34.00 28.00,34.00
             30.40,34.08 39.00,32.69 32.00,38.00
             32.12,40.12 36.62,38.75 32.75,41.88
             29.81,46.56 26.44,49.69 19.26,46.99
             16.56,45.38 18.25,43.44 14.00,42.00
             13.44,41.19 15.94,40.75 16.00,38.00 Z
           M 27.00,27.00
           C 27.00,27.00 21.00,27.00 21.00,27.00
             21.00,27.00 23.00,34.00 23.00,34.00
             23.00,34.00 25.00,34.00 25.00,34.00
             25.00,34.00 27.00,27.00 27.00,27.00 Z
           M 29.00,38.00
           C 29.00,38.00 19.00,38.00 19.00,38.00
             19.00,38.00 19.00,40.00 19.00,40.00
             19.00,40.00 29.00,40.00 29.00,40.00
             29.00,40.00 29.00,38.00 29.00,38.00 Z
           M 28.00,42.00
           C 28.00,42.00 20.00,42.00 20.00,42.00
             20.18,42.49 20.18,43.38 20.98,44.27
             23.69,47.33 26.87,45.13 28.00,42.00 Z" />
</svg>
