<?xml version="1.0" encoding="UTF-8" standalone="no"?>
<!DOCTYPE svg PUBLIC "-//W3C//DTD SVG 20010904//EN"
              "http://www.w3.org/TR/2001/REC-SVG-20010904/DTD/svg10.dtd">

<svg xmlns="http://www.w3.org/2000/svg"
     width="0.666667in" height="0.666667in"
     viewBox="0 0 200 200">
  <path d="M 144.00,48.40
           C 136.07,50.94 131.99,57.76 127.00,64.00
             127.00,64.00 100.00,98.00 100.00,98.00
             97.09,101.64 89.02,114.59 84.00,112.83
             81.50,111.95 78.48,108.06 76.80,106.00
             69.74,97.31 56.24,74.20 43.22,87.22
             37.87,92.58 38.67,99.05 42.40,105.00
             42.40,105.00 70.61,141.00 70.61,141.00
             74.70,145.96 79.86,151.81 87.00,150.65
             95.63,149.24 103.23,136.66 108.42,130.00
             108.42,130.00 139.61,91.00 139.61,91.00
             139.61,91.00 157.23,68.00 157.23,68.00
             162.65,57.70 155.82,47.08 144.00,48.40 Z" />
</svg>
