<svg xmlns="http://www.w3.org/2000/svg"
     width="0.666667in" height="0.666667in"
     viewBox="0 0 200 200">
  <path d="M 57.00,48.40
           C 49.27,50.90 44.88,58.24 48.57,66.00
             50.91,70.93 65.31,84.29 70.00,89.00
             72.56,91.57 77.84,95.99 77.04,100.00
             76.49,102.71 72.91,106.06 71.00,108.00
             71.00,108.00 57.00,122.00 57.00,122.00
             53.34,125.68 48.86,129.79 47.56,135.00
             45.51,143.20 52.26,153.00 63.00,150.61
             70.78,148.88 81.24,136.76 87.00,131.00
             89.98,128.02 96.36,119.92 101.00,121.40
             103.84,122.30 107.61,126.75 109.58,129.00
             114.92,135.12 115.33,134.51 119.91,139.09
             124.94,144.11 130.72,152.25 139.00,150.59
             147.73,148.85 152.08,139.97 148.64,132.00
             146.45,126.96 132.73,114.38 128.00,109.91
             125.44,107.50 119.91,102.90 120.74,99.00
             121.37,96.08 126.80,91.20 129.00,89.00
             135.48,82.52 149.10,71.25 149.89,62.00
             150.71,52.36 141.96,45.84 133.00,48.85
             126.38,51.08 113.56,65.50 108.00,71.00
             105.45,73.51 101.01,78.73 97.00,77.55
             94.41,76.79 90.01,72.01 88.00,70.00
             83.45,65.46 70.83,51.87 66.00,49.57
             62.79,48.04 60.42,48.01 57.00,48.40 Z" />
</svg>
