<svg xmlns="http://www.w3.org/2000/svg"
     width="0.666667in" height="0.666667in"
     viewBox="0 0 200 200">
  <path d="M 91.00,38.30
           C 79.21,40.52 66.76,46.53 61.52,58.00
             58.13,65.40 57.88,77.26 68.00,79.53
             79.06,82.01 85.96,62.74 99.00,63.98
             102.04,64.27 104.60,65.71 106.42,68.11
             109.61,72.08 109.32,76.95 106.42,80.91
             100.88,88.20 91.33,86.82 86.30,92.22
             81.32,97.56 79.17,126.42 97.00,124.89
             108.32,123.92 106.30,114.63 112.13,109.39
             115.01,106.80 119.68,105.21 123.00,103.04
             128.05,99.74 132.21,94.50 134.65,89.00
             137.16,83.35 137.07,79.00 137.00,73.00
             136.68,46.15 115.01,35.91 91.00,38.30 Z
           M 92.00,133.39
           C 75.08,138.90 81.88,163.62 98.00,160.31
             112.11,157.41 112.93,142.21 103.96,135.65
             100.11,132.84 96.50,132.79 92.00,133.39 Z" />
</svg>
