<svg xmlns="http://www.w3.org/2000/svg" viewBox="0 0 48 48">
  <path id="Zaznaczenie"
        d="M 38.81,14.62
           C 41.51,16.11 44.24,16.28 45.91,19.04
             49.49,24.95 47.05,39.66 41.69,44.44
             35.33,50.10 27.27,46.04 19.31,44.38
             11.71,44.23 12.92,28.28 13.00,22.00
             13.03,19.87 13.06,18.55 14.25,16.69
             16.24,13.59 21.05,13.55 24.62,9.50
             27.04,6.76 31.26,-0.52 37.94,0.94
             41.83,1.59 38.00,14.00 38.81,14.62 Z
           M 34.56,7.44
           C 33.25,6.00 31.19,8.31 31.19,8.31
             28.62,13.75 29.34,13.96 26.12,16.56
             23.49,18.70 19.33,18.51 18.25,20.75
             18.19,25.69 18.31,25.73 18.31,27.44
             18.31,27.44 18.31,31.38 18.31,31.38
             18.35,33.22 17.83,37.26 18.88,38.88
             21.74,43.31 34.56,43.92 38.88,40.75
             43.34,37.47 44.75,25.25 41.06,21.06
             38.06,18.44 39.12,19.19 33.69,19.25
             33.69,19.25 31.94,13.81 34.56,7.44 Z
           M 1.06,14.25
           C 1.06,14.25 5.38,12.94 11.00,14.00
             11.81,19.31 11.50,32.25 11.00,43.00
             4.69,43.75 0.94,43.06 0.94,43.06
             0.75,34.88 0.44,24.94 1.06,14.25 Z" />
</svg>
