<svg xmlns="http://www.w3.org/2000/svg"
     width="2.22222in" height="2.22222in"
     viewBox="0 0 200 200">
  <path d="M 49.00,63.00
           C 54.00,63.00 70.35,63.79 73.94,61.83
             78.85,59.14 79.32,52.01 74.85,48.74
             72.10,46.72 68.25,47.01 65.00,47.00
             65.00,47.00 45.00,47.00 45.00,47.00
             40.77,47.02 36.56,46.87 34.17,51.11
             32.40,54.26 33.00,64.02 33.00,68.00
             33.00,68.00 33.00,109.00 33.00,109.00
             33.00,109.00 33.00,140.00 33.00,140.00
             33.01,142.96 32.73,146.35 34.60,148.85
             37.22,152.36 41.11,151.99 45.00,152.00
             45.00,152.00 67.00,152.00 67.00,152.00
             71.90,151.97 76.81,152.06 77.76,145.98
             78.21,143.06 77.43,139.80 74.77,138.17
             71.48,136.16 53.86,137.00 49.00,137.00
             49.00,137.00 49.00,108.00 49.00,108.00
             54.17,108.00 70.08,108.77 73.92,106.69
             79.14,103.82 79.23,95.92 73.92,93.02
             70.75,91.27 53.69,92.00 49.00,92.00
             49.00,92.00 49.00,63.00 49.00,63.00 Z
           M 101.00,88.00
           C 101.00,88.00 101.00,64.00 101.00,64.00
             101.00,60.54 101.33,55.15 99.99,52.04
             97.27,45.73 89.90,46.04 86.74,50.23
             84.71,52.91 85.01,56.81 85.00,60.00
             85.00,60.00 85.00,139.00 85.00,139.00
             85.01,142.25 84.72,146.10 86.74,148.85
             90.03,153.35 97.83,153.09 100.26,146.98
             101.29,144.41 101.00,138.02 101.00,135.00
             101.00,135.00 101.00,112.00 101.00,112.00
             101.00,112.00 150.00,161.00 150.00,161.00
             154.17,165.17 162.68,175.88 169.00,174.53
             171.12,174.07 172.97,172.72 174.13,170.89
             178.31,164.37 170.11,158.11 166.00,154.00
             166.00,154.00 129.00,117.00 129.00,117.00
             126.38,114.38 114.89,103.62 114.20,101.00
             113.21,97.26 121.46,90.54 124.00,88.00
             124.00,88.00 142.00,70.00 142.00,70.00
             144.66,67.34 150.28,62.13 151.82,59.00
             154.58,53.43 150.73,46.09 144.00,47.36
             139.93,48.12 134.01,54.99 131.00,58.00
             131.00,58.00 119.00,70.00 119.00,70.00
             119.00,70.00 101.00,88.00 101.00,88.00 Z" />

  <path fill-opacity="0.7" d="M 152.00,85.00
           C 147.79,86.48 148.15,87.83 148.00,92.00
             135.94,88.69 133.90,100.03 138.43,104.57
             141.66,107.80 147.67,106.73 152.00,107.00
             152.00,107.00 152.00,85.00 152.00,85.00 Z
           M 125.02,91.45
           C 114.32,95.81 119.56,109.04 128.98,106.57
             137.64,104.29 136.82,90.44 125.02,91.45 Z
           M 124.60,96.04
           C 128.46,94.75 131.69,97.20 130.34,100.69
             128.77,104.76 120.05,102.44 124.60,96.04 Z
           M 142.31,96.08
           C 145.49,95.38 148.77,96.98 147.34,100.69
             145.72,104.89 136.54,102.15 142.31,96.08 Z" />
</svg>
