<svg xmlns="http://www.w3.org/2000/svg"
     width="0.666667in" height="0.666667in"
     viewBox="0 0 200 200">
  <path d="M 99.45,36.73
           C 81.82,35.09 78.55,38.73 80.18,52.00
             86.00,81.45 86.18,87.82 86.00,103.00
             86.01,112.52 86.50,123.75 100.25,123.50
             113.00,123.75 112.00,110.73 111.64,104.73
             112.00,80.36 119.09,60.73 120.18,52.18
             125.45,30.91 113.09,35.64 99.45,36.73 Z
           M 99.00,132.77
           C 81.58,133.74 84.00,155.50 90.25,158.75
             95.50,161.25 104.50,161.50 108.25,157.75
             113.25,152.75 116.00,134.00 99.00,132.77 Z" />
</svg>
